<?xml version="1.0" encoding="utf-8"?>
<!-- Generator: Adobe Illustrator 25.4.1, SVG Export Plug-In . SVG Version: 6.00 Build 0)  -->
<svg version="1.1" id="Layer_1" xmlns="http://www.w3.org/2000/svg" xmlns:xlink="http://www.w3.org/1999/xlink" x="0px" y="0px"
	 viewBox="0 0 496 496" style="enable-background:new 0 0 496 496;" xml:space="preserve">
<style type="text/css">
	.st0{fill:#FFFFFF;}
</style>
<g>
	<g>
		<path class="st0" d="M367.3,0H128.7C54.1,0,0,54.1,0,128.7v238.5C0,441.9,54.1,496,128.7,496h238.5c74.6,0,128.7-54.1,128.7-128.7
			V128.7C496,54.1,441.9,0,367.3,0z M464,367.3c0,57-39.8,96.7-96.7,96.7H128.7C71.8,464,32,424.2,32,367.3V128.7
			c0-57,39.8-96.7,96.7-96.7h238.5c57,0,96.7,39.8,96.7,96.7V367.3z"/>
	</g>
</g>
<g>
	<g>
		<path class="st0" d="M234.6,263.9c-6.4-8.4-15.6-14.4-27.5-17.9c9.2-4.6,16.1-10.6,20.7-18s6.8-15.3,6.8-23.8c0-9-2.6-17.7-7.7-26
			s-12.3-14.4-21.3-18.4c-9.1-4-21.2-6-36.2-6H95.6v196.9h75.1c12.5,0,23.1-1.1,31.8-3.3c8.6-2.2,15.8-5.4,21.6-9.7
			c5.7-4.3,10.5-10.4,14.4-18.3c3.9-7.9,5.8-16.5,5.8-25.7C244.2,282.3,241,272.3,234.6,263.9z M121.6,236.6v-59.5H161
			c14.1,0,24.1,0.9,30,2.7c5.8,1.8,10.3,5.2,13.4,10.2c3.1,5,4.7,10.7,4.7,17.3c0,6.9-1.7,12.6-5,17.2c-3.4,4.6-8.4,7.8-15,9.8
			c-5,1.5-13.3,2.3-24.8,2.3L121.6,236.6C121.6,236.7,121.6,236.6,121.6,236.6z M213.4,310.3c-2.6,4.8-5.9,8.4-9.9,11
			c-4,2.5-9,4.3-15,5.4c-3.4,0.6-9.3,1-17.7,1h-49v0v-67.7h45.5c12.5,0,22.1,1.1,28.8,3.3c6.7,2.2,11.9,6,15.6,11.4
			s5.6,11.8,5.6,19.1C217.3,300,216,305.5,213.4,310.3z"/>
	</g>
</g>
<g>
	<g>
		<path class="st0" d="M400.4,279.3c0-23.6-6-41.8-18.1-54.8c-12.1-13-27.7-19.5-46.7-19.5c-19.7,0-35.7,6.6-48.1,19.9
			c-12.4,13.3-18.5,31.9-18.5,55.9c0,23.2,6.1,41.2,18.3,54.1c12.2,12.8,28.8,19.2,49.6,19.2c16.5,0,30.1-4,40.8-12.1
			c10.7-8.1,17.9-19.4,21.9-34l-25-3.1c-3.7,10.2-8.6,17.6-14.9,22.3c-6.3,4.7-13.8,7-22.7,7c-11.9,0-21.8-4.2-29.8-12.5
			c-8-8.3-12.4-20.3-13.3-36h106.4C400.4,282.8,400.4,280.7,400.4,279.3z M295.3,265.8L295.3,265.8c0.8-12.5,5-22.4,12.5-29.8
			c7.6-7.4,16.9-11.2,28-11.2c12.3,0,22.3,4.7,30,14c5,6,8,15,9.1,27H295.3z"/>
	</g>
</g>
<g>
	<g>
		<polygon class="st0" points="375.1,171.5 294.3,171.5 294.1,191.4 375.2,191.4 		"/>
	</g>
</g>
</svg>
