<?xml version="1.0" encoding="utf-8"?>
<!-- Generator: Adobe Illustrator 25.4.1, SVG Export Plug-In . SVG Version: 6.00 Build 0)  -->
<svg version="1.1" id="Capa_1" xmlns="http://www.w3.org/2000/svg" xmlns:xlink="http://www.w3.org/1999/xlink" x="0px" y="0px"
	 viewBox="0 0 512 512" style="enable-background:new 0 0 512 512;" xml:space="preserve">
<g>
	<g>
		<path d="M436.4,409.8l-25-38l13.4-3.7c8-2.2,9.5-13.3,2.3-17.5l-37.6-22V97.6c0-14.8-12-26.8-26.8-26.8h-262
			C86,70.8,74,82.8,74,97.6v245.2c0,14.8,12,26.8,26.8,26.8h105c4,0,7.2-3.2,7.2-7.2c0-4-3.2-7.2-7.2-7.2h-105
			c-6.8,0-12.3-5.5-12.3-12.3V135.6h286.6v184.6l-25.5-15c-3.6-2.1-7.3-3.4-11.4-1.1c-3.3,1.9-5.3,5.6-4.8,9.5l5.1,41.5h-69.4
			c-4,0-7.2,3.2-7.2,7.2c0,4,3.2,7.2,7.2,7.2h71.1l4.3,35.4c1,8.2,11.8,11.3,17,4.8l8.7-10.8l25,38c2.9,4.3,8.9,5.6,13.2,2.7
			l25.2-16.6C438.1,420.2,439.3,414.2,436.4,409.8L436.4,409.8z M88.5,97.6c0-6.8,5.5-12.3,12.3-12.3h262c6.8,0,12.3,5.5,12.3,12.3
			v23.5H88.5L88.5,97.6z M404.6,424.9l-26-39.5c-3.5-5.3-11.5-5.7-15.5-0.7l-5.6,7l-8.6-69.9l60.8,35.6l-8.7,2.4
			c-6.2,1.7-9,9.1-5.5,14.5l26,39.5L404.6,424.9z"/>
		<path d="M137.8,228.4h48.5c4,0,7.2-3.2,7.2-7.2v-48.4c0-4-3.2-7.2-7.2-7.2h-48.5c-4,0-7.2,3.2-7.2,7.2v48.4
			C130.5,225.2,133.8,228.4,137.8,228.4z M145,180.1h34.1V214H145V180.1z"/>
		<path d="M231.2,180.1h94.7c4,0,7.2-3.2,7.2-7.2s-3.2-7.2-7.2-7.2h-94.7c-4,0-7.2,3.2-7.2,7.2S227.2,180.1,231.2,180.1L231.2,180.1
			z"/>
		<path d="M231.2,225.8h94.7c4,0,7.2-3.2,7.2-7.2s-3.2-7.2-7.2-7.2h-94.7c-4,0-7.2,3.2-7.2,7.2S227.2,225.8,231.2,225.8L231.2,225.8
			z"/>
		<path d="M137.8,271.5h188.2c4,0,7.2-3.2,7.2-7.2c0-4-3.2-7.2-7.2-7.2H137.8c-4,0-7.2,3.2-7.2,7.2
			C130.5,268.2,133.8,271.5,137.8,271.5L137.8,271.5z"/>
		<path d="M137.8,317.2h156.3c4,0,7.2-3.2,7.2-7.2c0-4-3.2-7.2-7.2-7.2H137.8c-4,0-7.2,3.2-7.2,7.2
			C130.5,313.9,133.8,317.2,137.8,317.2L137.8,317.2z"/>
		<path d="M116.3,101.1c-2.6-6.2-11.8-5.6-13.6,0.8c-1.7,6.3,5.4,11.5,10.9,8C116.4,108.1,117.6,104.3,116.3,101.1z"/>
		<path d="M142.8,101.1c-1.5-3.6-5.8-5.4-9.4-3.9c-3.6,1.5-5.4,5.8-3.9,9.4c1.5,3.6,5.8,5.4,9.4,3.9
			C142.5,109,144.3,104.7,142.8,101.1z"/>
		<path d="M169.4,101.1c-1.5-3.6-5.8-5.4-9.4-3.9c-3.6,1.5-5.4,5.8-3.9,9.4c1.5,3.6,5.8,5.4,9.4,3.9
			C169.1,109,170.9,104.7,169.4,101.1z"/>
		<path d="M244.4,359.6c-1.5-3.6-5.8-5.4-9.4-3.9c-3.6,1.5-5.4,5.8-3.9,9.4c1.5,3.6,5.8,5.4,9.4,3.9
			C244.2,367.5,245.9,363.2,244.4,359.6z"/>
	</g>
</g>
</svg>
