<?xml version="1.0" encoding="utf-8"?>
<!-- Generator: Adobe Illustrator 25.4.1, SVG Export Plug-In . SVG Version: 6.00 Build 0)  -->
<svg version="1.1" id="Capa_1" xmlns="http://www.w3.org/2000/svg" xmlns:xlink="http://www.w3.org/1999/xlink" x="0px" y="0px"
	 viewBox="0 0 512 512" style="enable-background:new 0 0 512 512;" xml:space="preserve">
<style type="text/css">
	.st0{fill:none;}
</style>
<g>
	<circle class="st0" cx="256" cy="299.9" r="11"/>
	<circle class="st0" cx="256" cy="101.6" r="11"/>
	<path class="st0" d="M278,398.7H234c-14.1,0-26.5,9.7-31,22.7h106C304.4,408.4,292.1,398.7,278,398.7z"/>
	<circle class="st0" cx="124.3" cy="256" r="11"/>
	<rect x="90.6" y="90.6" class="st0" width="22" height="22"/>
	<path class="st0" d="M234,376.7H278c4.5,0,9,0.6,13.3,1.7c5.1-29.6,18.5-57.2,38.6-79.7L267,204.4v64.4c12.8,4.5,22,16.8,22,31
		c0,18.1-14.8,32.9-32.9,32.9s-32.9-14.8-32.9-32.9c0-14.3,9.1-26.5,22-31v-64.4l-62.9,94.3c20.1,22.5,33.4,50.1,38.6,79.7
		C225,377.3,229.5,376.7,234,376.7z"/>
	<rect x="399.4" y="90.6" class="st0" width="22" height="22"/>
	<circle class="st0" cx="387.7" cy="256" r="11"/>
	<path d="M432.4,72.3h-43.9c-4,0-7.3,3.3-7.3,7.3v11v3.7h-3.7H287h-2.6l-0.9-2.4c-4.2-11.7-15.2-19.5-27.6-19.5
		c-12.4,0-23.4,7.8-27.6,19.5l-0.9,2.4H225h-90.5h-3.7v-3.7v-11c0-4-3.3-7.3-7.3-7.3H79.6c-4,0-7.3,3.3-7.3,7.3v43.9
		c0,4,3.3,7.3,7.3,7.3h43.9c4,0,7.3-3.3,7.3-7.3v-11.1v-3.7h3.7h45.7h12.6l-10.6,6.7c-37.8,23.9-62,64.8-64.9,109.6l-0.1,2.4
		l-2.3,0.8c-11.9,4.1-19.8,15.2-19.8,27.7c0,16.2,13.1,29.3,29.3,29.3s29.3-13.1,29.3-29.3c0-12.2-7.8-23.3-19.2-27.5l-2.6-1
		l0.2-2.8c1-13.1,4-25.9,9.1-38.2c4.9-11.9,11.6-23.1,20-33c8.3-10,18-18.5,28.8-25.5c11.1-7.1,23.1-12.4,35.7-15.5l2.9-0.7l1.3,2.6
		c4.9,10.2,14.9,16.5,26.1,16.5s21.2-6.2,26.2-16.2l1.3-2.6l2.9,0.7c12.6,3.2,24.7,8.4,35.7,15.5c10.8,7,20.5,15.5,28.8,25.5
		c8.3,10,15,21.1,20,33c5,12.2,8.1,25.1,9.1,38.2l0.2,2.8l-2.6,1c-11.5,4.2-19.2,15.3-19.2,27.5c0,16.2,13.1,29.3,29.3,29.3
		c16.2,0,29.3-13.1,29.3-29.3c0-12.5-8-23.6-19.8-27.7l-2.3-0.8l-0.1-2.4c-1.4-21.7-8-43.2-19-62.1c-11.3-19.1-27.1-35.5-45.8-47.4
		l-10.8-6.9h12.6h45.7h3.7v3.7v11c0,4,3.3,7.3,7.3,7.3h43.9c4,0,7.3-3.3,7.3-7.3V79.6C439.7,75.6,436.4,72.3,432.4,72.3z
		 M116.2,90.6v22v3.7h-3.7h-22H87v-3.7v-22V87h3.7h22h3.7V90.6z M138.9,256c0,8-6.6,14.6-14.6,14.6s-14.6-6.6-14.6-14.6
		s6.6-14.6,14.6-14.6S138.9,248,138.9,256z M256,116.2c-8,0-14.6-6.6-14.6-14.6S248,87,256,87s14.6,6.6,14.6,14.6
		S264,116.2,256,116.2z M402.4,256c0,8-6.6,14.6-14.6,14.6s-14.6-6.6-14.6-14.6s6.6-14.6,14.6-14.6S402.4,248,402.4,256z M425,90.6
		v22v3.7h-3.7h-22h-3.7v-3.7v-22V87h3.7h22h3.7V90.6z"/>
	<path d="M349.9,295.9l-87.7-131.7l-0.1-0.1l0,0l0,0c-0.1-0.1-0.2-0.3-0.3-0.4c-1.4-1.8-3.4-2.7-5.7-2.7c-2.4,0-4.6,1.2-6,3.1l0,0
		v0.1l-0.1,0.1l-87.9,131.7c-1.9,2.9-1.5,6.8,0.9,9.2c22.3,22.3,36.8,52,40.7,83.3l0.2,2l-1.6,1.2c-1.7,1.3-3.2,2.8-4.6,4.2
		c-9.5,9.9-14.9,22.8-14.9,36.5c0,4,3.3,7.3,7.3,7.3h131.7c4,0,7.3-3.3,7.3-7.3c0-13.7-5.3-26.6-14.9-36.5c-1.4-1.4-2.9-2.9-4.6-4.2
		l-1.6-1.2l0.2-2c3.9-31.4,18.4-61,40.7-83.3C351.4,302.6,351.9,298.7,349.9,295.9z M256,285.3c8,0,14.6,6.6,14.6,14.6
		c0,8-6.6,14.6-14.6,14.6s-14.6-6.6-14.6-14.6C241.4,291.9,248,285.3,256,285.3z M312.5,420.1l1.7,4.9h-5.1H203h-5.1l1.7-4.9
		c2.5-7.1,7.2-13.5,13.2-17.9c6.3-4.7,13.7-7.2,21.3-7.2H278c7.6,0,15,2.5,21.3,7.2C305.3,406.7,310,413.1,312.5,420.1z
		 M332.5,301.2c-19.6,22-32.6,48.9-37.7,77.9l-0.7,3.9l-3.8-1c-4-1-8.3-1.5-12.4-1.5H234c-4.2,0-8.4,0.5-12.4,1.5l-3.8,1l-0.7-3.9
		c-5-29-18.1-55.9-37.7-77.9l-1.9-2.1l1.5-2.3l62.9-94.3l6.7-10.1v12.1v64.4v2.6l-2.4,0.9c-11.7,4.2-19.5,15.2-19.5,27.6
		c0,16.2,13.1,29.3,29.3,29.3s29.3-13.1,29.3-29.3c0-12.4-7.8-23.4-19.5-27.6l-2.4-0.9v-2.6v-64.4v-12.1l6.7,10l62.9,94.3l1.5,2.3
		L332.5,301.2z"/>
</g>
</svg>
