<?xml version="1.0" encoding="utf-8"?>
<!-- Generator: Adobe Illustrator 25.4.1, SVG Export Plug-In . SVG Version: 6.00 Build 0)  -->
<svg version="1.1" id="Capa_1" xmlns="http://www.w3.org/2000/svg" xmlns:xlink="http://www.w3.org/1999/xlink" x="0px" y="0px"
	 viewBox="0 0 512 512" style="enable-background:new 0 0 512 512;" xml:space="preserve">
<g>
	<path d="M402.4,50.6H109.6c-12.6,0-23.3,9.9-23.3,22.1v353.1c0,0.1,0.2,0.3,0.2,0.3c0,19.4,16.7,35.2,37,35.2h257.6
		c12.6,0,22.9-9.9,22.9-22.1v-34.5c12.2-0.8,21.8-10.4,21.8-22V72.7C425.7,60.5,415,50.6,402.4,50.6z M390,439.3c0,4.5-4,8.2-9,8.2
		H123.5c-12.6,0-22.8-9.6-22.8-21.3v-0.3c0.2-11.7,10.4-21.1,22.8-21.1H390V439.3z M411.8,382.7c0,4.5-4.4,8.2-9.4,8.2H123.5
		c-8.6,0-16.3,2.9-23.2,7.7V72.7c0-4.5,4.4-8.2,9.4-8.2h292.8c5,0,9.4,3.7,9.4,8.2V382.7z"/>
	<path d="M363.6,346.5H148.4c-3.8,0-7,3.1-7,7s3.1,7,7,7h215c3.8,0,7-3.1,7-7S367.4,346.5,363.6,346.5z"/>
	<path d="M363.6,308.2H148.4c-3.8,0-7,3.1-7,7s3.1,7,7,7h215c3.8,0,7-3.1,7-7S367.4,308.2,363.6,308.2z"/>
	<path d="M261.7,153.4c-1.3-1.8-3.4-3-5.7-3c-2.3,0-4.4,1.1-5.7,3l-17.7,24.9c-0.9,1.2-1.3,2.6-1.3,4l-0.1,97.6c0,1.8,0.7,3.5,2,4.8
		c1.3,1.2,3.1,1.9,5,1.8h35.5c1.8,0.1,3.6-0.6,5-1.8c1.3-1.3,2.1-3,2-4.9l-0.1-97.5c0-1.4-0.4-2.8-1.3-4L261.7,153.4z M266.7,189
		l0.1,60.9h-21.5l0.1-60.9H266.7z M260.2,175.1h-8.4l4.2-5.9L260.2,175.1z M245.2,272.5v-8.7h21.6v8.7H245.2z"/>
	<path d="M160.2,140.3h21.1c1.8,0.1,3.6-0.6,4.9-1.8c1.3-1.2,2-3,2-4.8v-3h21.2c-12.7,9.9-21.8,23.7-26.2,39.2h-9
		c-3.9,0.1-7,3.3-7,7.2v26.5c0,3.9,3.1,7.1,7,7.2h26.5c3.8,0,6.6-3.4,6.6-7.2v-26.5c0-3.8-2.7-7.2-6.6-7.2h-3
		c6.2-17.4,20.5-32.2,38.7-38.2c3.7,7.2,11.1,11.7,19.2,11.7c8.1,0,15.5-4.5,19.2-11.7c18.3,6,32.5,20.9,38.7,38.3h-3
		c-3.9,0.2-7,3.4-6.9,7.2v26.5c0,3.8,3,7.2,6.9,7.2h26.5c3.8,0,6.7-3.4,6.7-7.2v-26.5c0-3.8-2.9-7.2-6.7-7.2h-8.9
		c-4.3-15.5-13.4-29.2-26.1-39.2h21.8v3c0,1.8,0.7,3.6,2,4.8c1.3,1.2,3,1.9,4.9,1.8h21.1c1.8,0.1,3.6-0.6,4.9-1.8c1.3-1.2,2-3,2-4.8
		v-21.1c0.1-3.8-3-7-6.9-7.1h-21.1c-3.8,0.1-7,3.3-6.9,7.1v4.2h-47c-2.3-9.9-11.1-16.9-21.2-16.9c-10.2,0-19,7-21.1,16.9h-46.4v-4.2
		c0.1-3.9-3-7-6.9-7.1h-21.1c-3.8,0.1-7,3.3-6.9,7.1v21.1c0,1.8,0.7,3.6,2,4.8C156.6,139.6,158.4,140.3,160.2,140.3z M193.3,196.8
		h-12.2v-13.1h12.2V196.8z M330,196.8h-12.2v-13.1H330V196.8z M337.8,119.4h7v7h-7V119.4z M255.7,113.8c4.4,0,7.8,3.5,7.8,7.8
		s-3.5,7.8-7.8,7.8c-4.4,0-7.8-3.5-7.8-7.8C247.9,117.3,251.4,113.8,255.7,113.8z M167.2,119.4h7v7h-7V119.4z"/>
</g>
</svg>
