<?xml version="1.0" encoding="utf-8"?>
<!-- Generator: Adobe Illustrator 25.4.1, SVG Export Plug-In . SVG Version: 6.00 Build 0)  -->
<svg version="1.1" id="Capa_1" xmlns="http://www.w3.org/2000/svg" xmlns:xlink="http://www.w3.org/1999/xlink" x="0px" y="0px"
	 viewBox="0 0 512 512" style="enable-background:new 0 0 512 512;" xml:space="preserve">
<path d="M424.2,20H87.8C73.3,20,61,31.4,61,45.4v405.7c0,0.1,0.2,0.3,0.2,0.4c0,22.3,19.2,40.5,42.5,40.5h296
	c14.5,0,26.3-11.4,26.3-25.4V427c14-0.9,25-11.9,25-25.3V45.4C451,31.4,438.7,20,424.2,20z M410,466.6c0,5.2-4.6,9.4-10.3,9.4h-296
	c-14.5,0-26.2-11-26.2-24.5v-0.3c0.2-13.4,11.9-24.2,26.2-24.2H410V466.6z M435,401.6c0,5.2-5.1,9.4-10.8,9.4H103.7
	c-9.9,0-18.7,3.3-26.7,8.8V45.4c0-5.2,5.1-9.4,10.8-9.4h336.4c5.7,0,10.8,4.2,10.8,9.4V401.6z"/>
<path d="M379.6,360H132.4c-4.4,0-8,3.6-8,8s3.6,8,8,8h247.1c4.4,0,8-3.6,8-8S384,360,379.6,360z"/>
<path d="M379.6,316H132.4c-4.4,0-8,3.6-8,8s3.6,8,8,8h247.1c4.4,0,8-3.6,8-8S384,316,379.6,316z"/>
<path d="M262.5,138.1c-1.5-2.1-3.9-3.4-6.5-3.4s-5,1.3-6.5,3.4l-20.3,28.6c-1,1.4-1.5,3-1.5,4.6l-0.1,112.1c0,2.1,0.8,4,2.3,5.5
	c1.5,1.4,3.6,2.2,5.7,2.1h40.8c2.1,0.1,4.1-0.7,5.7-2.1c1.5-1.5,2.4-3.5,2.3-5.6l-0.1-112c0-1.6-0.5-3.2-1.5-4.6L262.5,138.1z
	 M268.3,179l0.1,70h-24.7l0.1-70H268.3z M260.8,163h-9.6l4.8-6.8L260.8,163z M243.6,275l0-10h24.8l0,10H243.6z"/>
<path d="M145.9,123h24.2c2.1,0.1,4.1-0.7,5.6-2.1c1.5-1.4,2.3-3.4,2.3-5.5V112h24.4c-14.6,11.4-25.1,27.2-30.1,45h-10.3
	c-4.5,0.1-8.1,3.8-8.1,8.3v30.4c0,4.5,3.6,8.2,8.1,8.3h30.4c4.4,0,7.6-3.9,7.6-8.3v-30.4c0-4.4-3.1-8.3-7.6-8.3h-3.4
	c7.1-20,23.5-37,44.5-43.9c4.3,8.3,12.8,13.4,22.1,13.4c9.3,0,17.8-5.2,22.1-13.5c21,6.9,37.4,24,44.5,44h-3.4
	c-4.5,0.2-8,3.9-7.9,8.3v30.4c0,4.4,3.5,8.3,7.9,8.3h30.4c4.4,0,7.7-3.9,7.7-8.3v-30.4c0-4.4-3.3-8.3-7.7-8.3H339
	c-4.9-17.8-15.4-33.6-30-45H334v3.4c0,2.1,0.8,4.1,2.3,5.5c1.5,1.4,3.5,2.2,5.6,2.1h24.2c2.1,0.1,4.1-0.7,5.6-2.1
	c1.5-1.4,2.3-3.4,2.3-5.5V91.2c0.1-4.4-3.5-8.1-7.9-8.2h-24.2c-4.4,0.1-8,3.8-7.9,8.2V96h-54c-2.6-11.4-12.7-19.4-24.4-19.4
	s-21.8,8.1-24.3,19.4H178v-4.8c0.1-4.5-3.5-8.1-7.9-8.2h-24.2c-4.4,0.1-8,3.8-7.9,8.2v24.2c0,2.1,0.8,4.1,2.3,5.5
	C141.8,122.3,143.8,123.1,145.9,123z M184,188h-14v-15h14V188z M341,188h-14v-15h14V188z M350,99h8v8h-8V99z M255.7,92.6
	c5,0,9,4,9,9s-4,9-9,9s-9-4-9-9C246.7,96.6,250.7,92.6,255.7,92.6z M154,99h8v8h-8V99z"/>
</svg>
