<?xml version="1.0" encoding="utf-8"?>
<!-- Generator: Adobe Illustrator 25.4.1, SVG Export Plug-In . SVG Version: 6.00 Build 0)  -->
<svg version="1.1" id="Layer_1" xmlns="http://www.w3.org/2000/svg" xmlns:xlink="http://www.w3.org/1999/xlink" x="0px" y="0px"
	 viewBox="0 0 512 512" style="enable-background:new 0 0 512 512;" xml:space="preserve">
<g>
	<path d="M389.6,70.1h-50.1h-4.6h-71.7c-22.5,0-40.8,18.3-40.8,40.7v58.2c-2.5-0.6-5.1-0.9-7.8-0.9h-99.7c-18.4,0-33.3,15-33.3,33.3
		V250l0,0v50.8c0,18.4,15,33.3,33.3,33.3h49.3v20.1c0,4.4,5.3,7,8.8,4.3l27.4-21.2v61.3c0,13.9,11.3,25.2,25.3,25.2h33.4v12.7
		c0,4.4,5.3,7,8.8,4.3l22.1-17h6.5c13.9,0,25.3-11.3,25.3-25.2V390v-1.2V328c0-13.9-11.3-25.2-25.3-25.2h-48.6
		c0.1-0.7,0.1-28.2,0.1-28.2c4.8,2,9.9,2.9,15.2,2.9h60.8v26.7c0,4.4,5.3,7,8.8,4.4l40.6-31h16.1c22.5,0,40.8-18.3,40.8-40.7v-126
		C430.5,88.4,412.1,70.1,389.6,70.1z M200.9,323.5c-0.5,0.2-0.9,0.4-1.4,0.8l-24.4,18.8v-14.5c0-3-2.5-5.4-5.4-5.4h-54.7
		c-12.4,0-22.4-10-22.4-22.4V250v-4.1v-44.4c0-12.3,10.1-22.4,22.4-22.4h99.7c12.4,0,22.4,10,22.4,22.4v63.3c-0.1,0.5-0.1,0.9,0,1.5
		v34.6c0,0.7-0.1,1.4-0.1,2h-11.3C213.3,302.8,203,311.7,200.9,323.5z M296.4,313.7c7.9,0,14.4,6.4,14.4,14.3v60.8v1.2v8.5
		c0,7.9-6.5,14.3-14.4,14.3h-8.3c-1.2,0-2.4,0.4-3.3,1.2L270,425.4v-7c0-3-2.5-5.4-5.4-5.4h-38.8c-7.9,0-14.4-6.4-14.4-14.3v-70.5
		c0-7.9,6.5-14.3,14.4-14.3L296.4,313.7L296.4,313.7z M419.6,236.9c0,16.5-13.4,29.8-29.9,29.8h-18.2c-1.2,0-2.3,0.4-3.3,1.1
		l-33.3,25.4v-21.1c0-3-2.5-5.4-5.4-5.4h-66.3c-5.4,0-10.7-1.5-15.2-4.1v-61.1c0-11.5-5.8-21.6-14.7-27.6v-62.9
		c0-16.5,13.4-29.8,29.9-29.8h71.7h4.6h50.1c16.5,0,29.9,13.4,29.9,29.8L419.6,236.9L419.6,236.9z"/>
	<path d="M340,110.3c-6.9-1.7-13.9,3.7-13.9,10.8c0,7.8-2.8,15.3-8,21.2l-15,17c-0.9-1.5-2.7-2.5-4.6-2.5h-29.3
		c-3,0-5.4,2.5-5.4,5.4v65.9c0,3,2.5,5.4,5.4,5.4h29.3c2.2,0,4.1-1.3,4.9-3.2c6,3.6,12.8,5.6,19.8,5.6H375c7.9,0,14.4-6.9,14.1-14.7
		c-0.1-3.5,0-50.4,0-51.5c0-7.8-6.3-14.1-14.1-14.1l-26.9-0.1l1.1-2.6c5.1-12.1,4.3-26.1-2.3-37.4C345.4,113,343,111.1,340,110.3
		C337,109.6,343,111.1,340,110.3C333.1,108.6,343,111.1,340,110.3L340,110.3z M293,222.8h-18.4v-55H293V222.8z M375,166.7
		c1.7,0,3.2,1.5,3.2,3.2c0,1,0,3.8,0,7.7c-0.1,21.1-0.1,41,0,44.3c0.1,1.2-0.5,2-0.9,2.4c-0.6,0.7-1.5,1-2.3,1h-51.8
		c-6.2,0-12.2-2.1-17-6l-2.3-1.9v-42.5l22.3-25.2c6.9-7.8,10.7-17.9,10.7-28.4c0-0.3,0.4-0.4,0.6-0.1c4.8,8.4,5.4,18.8,1.7,27.8
		l-4.3,10.2c-0.7,1.7-0.5,3.6,0.5,5.2c1,1.5,2.7,2.5,4.5,2.5L375,166.7z"/>
	<path d="M128.2,259.3c-3,0-5.4,2.5-5.4,5.4s2.5,5.4,5.4,5.4h16l-3,18.2c-0.5,3,1.5,5.7,4.5,6.2c0.3,0.1,0.6,0.1,0.9,0.1
		c2.6,0,4.9-1.9,5.4-4.6l3.3-19.9h13.1l-3,18.2c-0.5,3,1.5,5.7,4.5,6.2c0.3,0.1,0.6,0.1,0.9,0.1c2.6,0,4.9-1.9,5.4-4.6l3.3-19.9
		h21.9c3,0,5.4-2.5,5.4-5.4s-2.5-5.4-5.4-5.4h-20l2.2-13.3h17.9c3,0,5.4-2.5,5.4-5.4c0-3-2.5-5.4-5.4-5.4h-16l3-18.2
		c0.5-3-1.5-5.7-4.5-6.2s-5.7,1.5-6.2,4.5l-3.3,19.9h-13.1l3-18.2c0.5-3-1.5-5.7-4.5-6.2c-3-0.5-5.7,1.5-6.2,4.5l-3.3,19.9h-21.9
		c-3,0-5.4,2.5-5.4,5.4c0,3,2.5,5.4,5.4,5.4h20l-2.2,13.3H128.2z M159.3,246h13.1l-2.2,13.3h-13.1L159.3,246z"/>
	<path d="M261,341.9c-4.4-3.6-10.2-5.1-16.1-3.6c-7.6,1.8-15.1,8.9-15.1,20.5c0,7.2,2.6,13.5,8.1,19.2c4.4,4.6,10.8,9,20.7,14.3
		c0.8,0.4,1.7,0.7,2.5,0.7c0.9,0,1.7-0.2,2.5-0.7c17.3-9.1,28.8-18.3,28.8-33.4c0-11.6-7.8-18.6-15.7-20.3
		C270.9,337,265.2,338.4,261,341.9L261,341.9z M281.5,358.6c0,8.1-5.4,14.2-20.4,22.4c-15-8.3-20.4-14.3-20.4-22.4
		c0-6,3.5-9.1,6.8-9.9c0.6-0.1,1.2-0.2,1.9-0.2c2.5,0,5.2,1.2,6.8,4.4c0.9,1.8,2.9,3,4.9,3c2.1-0.1,3.9-1.2,4.8-3.1
		c1.7-3.8,5.4-4.4,8.3-3.8C277.9,349.7,281.5,352.7,281.5,358.6z"/>
</g>
</svg>
