<?xml version="1.0" encoding="utf-8"?>
<!-- Generator: Adobe Illustrator 25.4.1, SVG Export Plug-In . SVG Version: 6.00 Build 0)  -->
<svg version="1.1" id="Layer_1" xmlns="http://www.w3.org/2000/svg" xmlns:xlink="http://www.w3.org/1999/xlink" x="0px" y="0px"
	 viewBox="0 0 512 512" style="enable-background:new 0 0 512 512;" xml:space="preserve">
<path d="M440,0h-69h-6.3h-98.8c-31,0-56.2,25.2-56.2,56.1v80.2c-3.4-0.8-7-1.3-10.7-1.3H61.7c-25.3,0-45.9,20.6-45.9,45.8v66.9
	c0,0,0,0,0,0v70c0,25.3,20.6,45.8,45.9,45.8h67.9v27.7c0,6,7.3,9.6,12.1,5.9l37.8-29.2v84.4c0,19.1,15.6,34.7,34.8,34.7h46v17.5
	c0,6,7.3,9.6,12.1,5.9l30.4-23.4h9c19.2,0,34.8-15.6,34.8-34.7v-11.7v-1.6v-83.8c0-19.1-15.6-34.7-34.8-34.7h-66.9
	c0.1-0.9,0.1-38.8,0.1-38.8c6.6,2.7,13.7,4,21,4h83.8v36.8c0,6,7.3,9.6,12.1,6l55.9-42.7H440c31,0,56.2-25.2,56.2-56.1V56.1
	C496.3,25.2,471,0,440,0z M180.1,349c-0.7,0.3-1.3,0.6-1.9,1.1L144.6,376v-20c0-4.1-3.4-7.5-7.5-7.5H61.7
	c-17.1,0-30.9-13.8-30.9-30.8v-70V242v-61.2c0-17,13.9-30.8,30.9-30.8H199c17.1,0,30.9,13.8,30.9,30.8V268c-0.1,0.7-0.1,1.3,0,2
	v47.7c0,0.9-0.1,1.9-0.1,2.8h-15.5C197.2,320.5,183,332.8,180.1,349z M311.7,335.5c10.9,0,19.8,8.8,19.8,19.7v83.8v1.6v11.7
	c0,10.9-8.9,19.7-19.8,19.7h-11.5c-1.7,0-3.3,0.6-4.6,1.6l-20.3,15.7v-9.7c0-4.1-3.4-7.5-7.5-7.5h-53.5c-10.9,0-19.8-8.8-19.8-19.7
	v-97.1c0-10.9,8.9-19.7,19.8-19.7H311.7z M481.3,229.7c0,22.7-18.5,41.1-41.2,41.1h-25c-1.6,0-3.2,0.5-4.6,1.5l-45.8,35v-29.1
	c0-4.1-3.4-7.5-7.5-7.5h-91.3c-7.5,0-14.7-2-21-5.7v-84.2c0-15.8-8-29.7-20.2-38V56.1c0-22.7,18.5-41.1,41.2-41.1h98.8h6.3h69
	c22.7,0,41.2,18.4,41.2,41.1V229.7z"/>
<path d="M371.7,55.4c-9.5-2.4-19.2,5.1-19.2,14.9c0,10.8-3.9,21.1-11,29.2l-20.7,23.4c-1.3-2.1-3.7-3.4-6.3-3.4h-40.3
	c-4.1,0-7.5,3.4-7.5,7.5v90.8c0,4.1,3.4,7.5,7.5,7.5h40.3c3,0,5.6-1.8,6.8-4.4c8.2,5,17.6,7.7,27.3,7.7h71.3
	c10.9,0,19.9-9.5,19.4-20.3c-0.2-4.8,0-69.4,0-70.9c0-10.7-8.7-19.4-19.4-19.4l-37.1-0.1l1.5-3.6c7-16.6,5.9-35.9-3.1-51.5
	C379.2,59.1,375.8,56.5,371.7,55.4C367.6,54.4,375.8,56.5,371.7,55.4C362.2,53,375.8,56.5,371.7,55.4L371.7,55.4z M307,210.3h-25.3
	v-75.8H307V210.3z M419.9,133c2.4,0,4.4,2,4.4,4.4c0,1.4,0,5.3,0,10.6c-0.1,29-0.2,56.5,0,61c0.1,1.6-0.7,2.7-1.2,3.3
	c-0.8,0.9-2,1.4-3.2,1.4h-71.3c-8.5,0-16.8-2.9-23.4-8.3l-3.2-2.6v-58.5l30.7-34.7c9.5-10.8,14.8-24.7,14.8-39.1
	c0-0.4,0.6-0.5,0.8-0.2c6.6,11.6,7.5,25.9,2.3,38.3l-5.9,14c-1,2.3-0.7,5,0.7,7.1c1.4,2.1,3.7,3.4,6.2,3.4L419.9,133z"/>
<path d="M80,260.5c-4.1,0-7.5,3.4-7.5,7.5c0,4.1,3.4,7.5,7.5,7.5h22.1l-4.1,25c-0.7,4.1,2.1,7.9,6.2,8.6c0.4,0.1,0.8,0.1,1.2,0.1
	c3.6,0,6.8-2.6,7.4-6.3l4.5-27.4h18.1l-4.1,25c-0.7,4.1,2.1,7.9,6.2,8.6c0.4,0.1,0.8,0.1,1.2,0.1c3.6,0,6.8-2.6,7.4-6.3l4.5-27.4
	h30.1c4.1,0,7.5-3.4,7.5-7.5c0-4.1-3.4-7.5-7.5-7.5h-27.6l3-18.3h24.6c4.1,0,7.5-3.4,7.5-7.5s-3.4-7.5-7.5-7.5h-22.1l4.1-25
	c0.7-4.1-2.1-7.9-6.2-8.6c-4.1-0.7-7.9,2.1-8.6,6.2l-4.5,27.4h-18.1l4.1-25c0.7-4.1-2.1-7.9-6.2-8.6c-4.1-0.7-7.9,2.1-8.6,6.2
	l-4.5,27.4H80c-4.1,0-7.5,3.4-7.5,7.5s3.4,7.5,7.5,7.5h27.6l-3,18.3L80,260.5z M122.8,242.2h18.1l-3,18.3h-18.1L122.8,242.2z"/>
<path d="M262.9,374.3c-6.1-5-14.1-7-22.2-5c-10.4,2.5-20.8,12.2-20.8,28.2c0,9.9,3.6,18.6,11.1,26.4c6.1,6.4,14.9,12.4,28.5,19.7
	c1.1,0.6,2.3,0.9,3.5,0.9s2.4-0.3,3.5-0.9c23.8-12.6,39.6-25.2,39.6-46c0-16-10.8-25.6-21.6-28C276.5,367.6,268.7,369.5,262.9,374.3
	L262.9,374.3z M291.1,397.4c0,11.2-7.4,19.5-28.1,30.9c-20.7-11.4-28.1-19.7-28.1-30.9c0-8.3,4.8-12.5,9.3-13.6
	c0.8-0.2,1.7-0.3,2.6-0.3c3.4,0,7.1,1.6,9.4,6c1.3,2.5,4,4.1,6.8,4.1c2.9-0.1,5.4-1.7,6.6-4.3c2.4-5.2,7.5-6.1,11.5-5.2
	C286.1,385.1,291.1,389.2,291.1,397.4z"/>
</svg>
