<?xml version="1.0" encoding="utf-8"?>
<!-- Generator: Adobe Illustrator 25.4.1, SVG Export Plug-In . SVG Version: 6.00 Build 0)  -->
<svg version="1.1" id="a9f54f33-4909-4094-a7f7-0faa4fba6dcc"
	 xmlns="http://www.w3.org/2000/svg" xmlns:xlink="http://www.w3.org/1999/xlink" x="0px" y="0px" viewBox="0 0 837.5 673"
	 style="enable-background:new 0 0 837.5 673;" xml:space="preserve">
<style type="text/css">
	.st0{fill:#F0F0F0;}
	.st1{fill:#FFFFFF;}
	.st2{fill:#3F3D56;}
	.st3{fill:#E4E4E4;}
	.st4{fill:#CACACA;}
	.st5{fill:#6C63FF;}
	.st6{fill:#FFB6B6;}
	.st7{fill:#2F2E41;}
</style>
<path class="st0" d="M1.1,593.3c3.3-26.7,19.9-53,45.3-61.6c-10,27.5-10,57.6,0,85c3.9,10.6,9.4,21.9,5.7,32.6
	c-2.3,6.6-7.9,11.7-14.1,14.9c-6.3,3.2-13.2,4.7-20.1,6.2l-1.3,1.1C5.6,646.9-2.2,620,1.1,593.3z"/>
<path class="st1" d="M46.6,532.2c-14.8,16.6-24,37.4-26.3,59.6c-0.6,4.8-0.4,9.6,0.5,14.3c1,4.6,3.3,8.7,6.5,12.1
	c2.9,3.2,6.3,6.2,8.4,10.1c2.1,4,2.4,8.8,0.8,13.1c-1.9,5.3-5.5,9.6-9.2,13.7c-4.1,4.6-8.5,9.2-10.2,15.3c-0.2,0.7-1.3,0.4-1.1-0.4
	c3.1-10.5,13.3-16.5,18.1-26c2.3-4.4,3.2-9.6,1.1-14.2c-1.9-4.1-5.3-7.1-8.3-10.4c-3.2-3.3-5.5-7.3-6.8-11.6
	c-1.2-4.6-1.5-9.4-1.1-14.2c0.8-10.7,3.4-21.3,7.5-31.2c4.6-11.4,11.2-21.9,19.4-31C46.4,530.7,47.1,531.6,46.6,532.2z"/>
<path class="st1" d="M20.6,584.6c-7.6-1.8-12.7-8.9-12.1-16.6c0.1-0.8,1.2-0.7,1.2,0.1c-0.6,7.2,4.2,13.8,11.3,15.5
	C21.8,583.6,21.4,584.7,20.6,584.6z"/>
<path class="st1" d="M25.6,616.7c6.6-3.9,11.5-10.2,13.7-17.6c0.2-0.7,1.3-0.4,1.1,0.4c-2.3,7.7-7.4,14.2-14.3,18.3
	C25.5,618.2,25,617.1,25.6,616.7L25.6,616.7z"/>
<path class="st1" d="M32.2,552.1c2.7,1.3,5.9,1.1,8.5-0.4c0.7-0.4,1.2,0.7,0.5,1.1c-2.9,1.7-6.4,1.9-9.4,0.5
	c-0.3-0.1-0.5-0.4-0.4-0.7C31.6,552.1,31.9,552,32.2,552.1L32.2,552.1z"/>
<path class="st1" d="M71.5,606.1c-4.9-6-4.8-14.7,0.4-20.6c0.5-0.6,1.4,0.2,0.9,0.8c-4.8,5.4-4.9,13.6-0.3,19.1
	C73,606,72,606.6,71.5,606.1L71.5,606.1z"/>
<path class="st1" d="M56.2,634.7c7.7,0.8,15.3-1.3,21.5-5.8c0.6-0.5,1.3,0.5,0.7,1c-6.4,4.8-14.5,6.9-22.4,6
	C55.2,635.8,55.4,634.6,56.2,634.7L56.2,634.7z"/>
<path class="st1" d="M100.3,587.1c1.4,2.7,4.1,4.5,7.1,4.8c0.8,0.1,0.5,1.2-0.2,1.2c-3.3-0.4-6.3-2.3-7.8-5.3
	c-0.2-0.3-0.1-0.6,0.1-0.8C99.8,586.7,100.2,586.8,100.3,587.1L100.3,587.1z"/>
<path class="st2" d="M744,63.2C707.8,24.8,658,2.1,605.3,0v202L744,63.2z"/>
<path class="st3" d="M744,88.4L605.3,227.2h194C799.3,175.5,779.5,125.9,744,88.4z"/>
<path class="st0" d="M799.4,241.7c0,12.6-1.2,25.2-3.5,37.5c-0.2,1-0.4,2-0.6,2.9c-4.4,21.6-12.3,42.3-23.4,61.3c-0.6,1-1.2,2-1.8,3
	v0c-11,18-24.7,34.2-40.6,48c-0.8,0.7-1.6,1.4-2.4,2c-34.3,28.8-77.2,45.4-121.9,47.1v-202H799.4z"/>
<path class="st4" d="M585.6,443.9c2.7,0,5.4-0.1,8-0.2v-202L446.7,388.6C484.2,424.1,534,443.9,585.6,443.9z"/>
<path class="st5" d="M585.9,25c-111.7,0-202.2,90.5-202.2,202.2h210.4v-202C591.4,25,588.7,25,585.9,25z"/>
<path class="st5" d="M537.7,241.7l-42.5,42.5l-1.4,1.4l0,0l-37.1,37.1l-1.4,1.4l-40.1,40.1l-1.4,1.4v0l-23,23
	c-40.5-38.1-63.4-91.3-63.3-146.9H537.7z"/>
<path class="st0" d="M835,445H454c-0.6,0-1-0.4-1-1s0.4-1,1-1h381c0.6,0,1,0.4,1,1S835.5,445,835,445z"/>
<path class="st0" d="M835.5,572.5v-381c0-0.6,0.4-1,1-1s1,0.4,1,1v381c0,0.6-0.4,1-1,1S835.5,573.1,835.5,572.5z"/>
<circle class="st0" cx="778.5" cy="480" r="16"/>
<circle class="st0" cx="389.5" cy="29" r="16"/>
<path class="st2" d="M413.8,365.5c-33.2-32.9-52.6-77.1-54.2-123.8l4-0.1c1.6,45.6,20.6,89,53,121.1L413.8,365.5z"/>
<path class="st2" d="M456.7,322.7l-2.9,2.7c-22.1-23.3-37.7-52.1-45.2-83.3l1.9-0.5h2.1C420,272,435.2,300,456.7,322.7L456.7,322.7z
	"/>
<path class="st2" d="M495.3,284.3l-1.5,1.2l0,0l-1.5,1.3c-11.2-13.4-20.5-28.4-27.5-44.4l1.8-0.8h2.2c6.8,15.3,15.7,29.6,26.4,42.5
	C495.2,284.2,495.2,284.3,495.3,284.3z"/>
<path class="st6" d="M290.9,324.4c-6.4-0.5-11.9,4.3-12.3,10.7c0,0.7,0,1.4,0,2l-37.1,17.4l18.2,11.1l32.5-18.2
	c6.3-1.1,10.5-7.1,9.5-13.4C300.7,328.7,296.3,324.8,290.9,324.4z"/>
<polygon class="st6" points="137.3,659.2 150.2,659.2 156.3,609.7 137.3,609.7 "/>
<path class="st7" d="M134.1,655h25.2l0,0c8.9,0,16.1,7.2,16.1,16.1v0.5h-41.3V655z"/>
<polygon class="st6" points="202.7,659.2 215.6,659.2 221.7,609.7 202.7,609.7 "/>
<path class="st7" d="M199.5,655h25.2l0,0c8.9,0,16.1,7.2,16.1,16.1v0.5h-41.3V655z"/>
<polygon class="st7" points="211.3,402.7 217.8,416.7 229.5,542 220.4,649.7 199.1,649.7 173.9,480 162.1,645.7 133.4,644.6 
	127.8,419.8 "/>
<path class="st3" d="M107.6,287.2l27-11l38.1,2.1l33.8,12.3l11.3,126.1c-29.4,16.1-59.3,20.5-89.6,9L100,343.6L107.6,287.2z"/>
<path class="st3" d="M196,294l12-3.3c0,0,9.1-5.9,12,11.6c3,17.5,18.3,44.7,18.3,44.7l26.2-14l12.1,26.5l-41.4,25.1l-43.6-44
	L196,294z"/>
<path id="a80a6b0c-a21b-4eb6-b764-70793a425e46" class="st6" d="M130.3,252.8L130.3,252.8c-6.1-13.9,0.2-30.1,14-36.2
	c13.9-6.1,30.1,0.2,36.2,14l0,0l0.2,0.4c6,13.9-0.4,30.1-14.3,36.1C152.5,273.1,136.3,266.7,130.3,252.8L130.3,252.8z"/>
<path id="b51b91e7-03ed-46d5-9b2a-c48431fd2f0d" class="st7" d="M167.6,227.7c5.7,1,14.5,4.6,19.4,0.4c-2.4-2.8-5.5-5.1-8.9-6.5
	c-0.7-0.2-1.3-0.6-1.8-1c-1.7-1.7-0.4-4.6-1.1-6.9c-0.8-1.7-2.3-2.9-4.1-3.3c-1.7-0.5-3.5-0.6-5.2-1.2c-4-1.5-6.8-5.7-10.8-6.9
	c-3.5-1-7.1,0.6-10.1,2.4s-6.1,4.1-9.6,4.4c-2.7,0.2-4.4,4.6-7,4.8c-5.6,0.3-5.3-3.4-5.7,2.5c-0.2,3.5-5.3,10.5-5.2,14.1
	c0.1,2.3-0.3,4.6-0.3,7c0.2,4.4,1.9,8.7,5,11.9c2.6,2.6,5.9,4.4,8,7.4c1.1,1.6,1.9,3.4,3.2,4.9c1.3,1.4,3.5,2.3,5,1.3
	s1.5-3.2,2.2-4.9c0.9-2.1,3.1-3.4,5.4-3.3c2.4,0.3,4.4,1.9,5.2,4.2c-0.7-3.7-2.5-7.2-3.2-11s0.2-8.2,3.4-9.7
	c1.4-0.6,3.2-0.8,3.8-2.3c0.3-0.9,0-1.9,0.2-2.9C156,228.1,163.9,227,167.6,227.7z"/>
<path class="st6" d="M131.4,424.3c-0.9-6.3-6.8-10.7-13.1-9.7c-0.7,0.1-1.3,0.3-2,0.5l-25-32.5l-6.9,20.1l24.8,27.7
	c2.4,5.9,9.2,8.8,15.1,6.3C129.3,434.7,132.3,429.6,131.4,424.3L131.4,424.3z"/>
<path class="st3" d="M116.3,293.3l-8.6-6.1c0,0-19.8-1.1-22.7,15.1l-36.3,59.6l45,62l21.8-22.9L88,368.9l23.1-42.4L116.3,293.3z"/>
</svg>
